HIERARCHY
ROOT Model
{
	OFFSET 0 0 0
	CHANNELS 6 Xposition Yposition Zposition Zrotation Xrotation Yrotation
	JOINT Model1
	{
		OFFSET 0 -2.25479 2.99384
		CHANNELS 3 Zrotation Xrotation Yrotation
		JOINT Model2
		{
			OFFSET 12.111 0 0
			CHANNELS 3 Zrotation Xrotation Yrotation
			JOINT Model3
			{
				OFFSET 11.5502 0 0
				CHANNELS 3 Zrotation Xrotation Yrotation
				JOINT Model4
				{
					OFFSET 11.781 0 0
					CHANNELS 3 Zrotation Xrotation Yrotation
					JOINT Model5
					{
						OFFSET 20.0601 0 0
						CHANNELS 3 Zrotation Xrotation Yrotation
						JOINT Model6
						{
							OFFSET 11.1962 0 0
							CHANNELS 3 Zrotation Xrotation Yrotation
							End Site
							{
								OFFSET 0 0 0
							}
						}
					}
					JOINT Model7
					{
						OFFSET 10.8223 0.417534 3.51114
						CHANNELS 3 Zrotation Xrotation Yrotation
						JOINT Model8
						{
							OFFSET -6.07943 0 0
							CHANNELS 3 Zrotation Xrotation Yrotation
							JOINT Model9
							{
								OFFSET -0.277412 10.39 -0.051239
								CHANNELS 3 Zrotation Xrotation Yrotation
								JOINT Model10
								{
									OFFSET -3.4391 -0.282043 1.86678
									CHANNELS 3 Zrotation Xrotation Yrotation
									JOINT Model11
									{
										OFFSET 13.0269 0 0
										CHANNELS 3 Zrotation Xrotation Yrotation
										JOINT Model12
										{
											OFFSET 10.8866 0 0
											CHANNELS 3 Zrotation Xrotation Yrotation
											JOINT Model13
											{
												OFFSET 16.7317 0 0
												CHANNELS 3 Zrotation Xrotation Yrotation
												JOINT Model14
												{
													OFFSET 11.8292 0 0
													CHANNELS 3 Zrotation Xrotation Yrotation
													JOINT Model15
													{
														OFFSET 4.82751 -3.73566 -0.836517
														CHANNELS 3 Zrotation Xrotation Yrotation
														JOINT Model16
														{
															OFFSET 3.75311 -0.0582886 -0.0186462
															CHANNELS 3 Zrotation Xrotation Yrotation
															JOINT Model17
															{
																OFFSET 2.88689 0.0192337 0.014801
																CHANNELS 3 Zrotation Xrotation Yrotation
																End Site
																{
																	OFFSET 0 0 0
																}
															}
														}
													}
													JOINT Model18
													{
														OFFSET 9.72197 -3.06458 0.23877
														CHANNELS 3 Zrotation Xrotation Yrotation
														JOINT Model19
														{
															OFFSET 4.61131 0 0
															CHANNELS 3 Zrotation Xrotation Yrotation
															JOINT Model20
															{
																OFFSET 2.8969 -7.62939e-006 0
																CHANNELS 3 Zrotation Xrotation Yrotation
																End Site
																{
																	OFFSET 0 0 0
																}
															}
														}
													}
													JOINT Model21
													{
														OFFSET 9.54431 -0.745064 0.588943
														CHANNELS 3 Zrotation Xrotation Yrotation
														JOINT Model22
														{
															OFFSET 5.33978 0 0
															CHANNELS 3 Zrotation Xrotation Yrotation
															JOINT Model23
															{
																OFFSET 3.03619 7.62939e-006 0
																CHANNELS 3 Zrotation Xrotation Yrotation
																End Site
																{
																	OFFSET 0 0 0
																}
															}
														}
													}
													JOINT Model24
													{
														OFFSET 9.47758 1.51286 0.485123
														CHANNELS 3 Zrotation Xrotation Yrotation
														JOINT Model25
														{
															OFFSET 4.96136 7.62939e-006 0
															CHANNELS 3 Zrotation Xrotation Yrotation
															JOINT Model26
															{
																OFFSET 2.51965 0 0
																CHANNELS 3 Zrotation Xrotation Yrotation
																End Site
																{
																	OFFSET 0 0 0
																}
															}
														}
													}
													JOINT Model27
													{
														OFFSET 9.34247 3.34117 -0.239273
														CHANNELS 3 Zrotation Xrotation Yrotation
														JOINT Model28
														{
															OFFSET 3.28259 2.28882e-005 0
															CHANNELS 3 Zrotation Xrotation Yrotation
															JOINT Model29
															{
																OFFSET 2.1292 0 0
																CHANNELS 3 Zrotation Xrotation Yrotation
																End Site
																{
																	OFFSET 0 0 0
																}
															}
														}
													}
												}
											}
										}
									}
								}
							}
						}
					}
					JOINT Model30
					{
						OFFSET 10.8223 0.4179 -3.51106
						CHANNELS 3 Zrotation Xrotation Yrotation
						JOINT Model31
						{
							OFFSET 6.07943 0 0
							CHANNELS 3 Zrotation Xrotation Yrotation
							JOINT Model32
							{
								OFFSET 0.277412 -10.39 0.051239
								CHANNELS 3 Zrotation Xrotation Yrotation
								JOINT Model33
								{
									OFFSET 3.4391 0.282043 -1.86678
									CHANNELS 3 Zrotation Xrotation Yrotation
									JOINT Model34
									{
										OFFSET -13.0269 0 0
										CHANNELS 3 Zrotation Xrotation Yrotation
										JOINT Model35
										{
											OFFSET -10.8866 0 0
											CHANNELS 3 Zrotation Xrotation Yrotation
											JOINT Model36
											{
												OFFSET -16.7317 0 0
												CHANNELS 3 Zrotation Xrotation Yrotation
												JOINT Model37
												{
													OFFSET -11.8292 0 0
													CHANNELS 3 Zrotation Xrotation Yrotation
													JOINT Model38
													{
														OFFSET -4.82751 3.73566 0.836517
														CHANNELS 3 Zrotation Xrotation Yrotation
														JOINT Model39
														{
															OFFSET -3.75311 0.0582886 0.0186462
															CHANNELS 3 Zrotation Xrotation Yrotation
															JOINT Model40
															{
																OFFSET -2.88688 -0.0192337 -0.014801
																CHANNELS 3 Zrotation Xrotation Yrotation
																End Site
																{
																	OFFSET 0 0 0
																}
															}
														}
													}
													JOINT Model41
													{
														OFFSET -9.72197 3.06459 -0.23877
														CHANNELS 3 Zrotation Xrotation Yrotation
														JOINT Model42
														{
															OFFSET -4.6113 0 0
															CHANNELS 3 Zrotation Xrotation Yrotation
															JOINT Model43
															{
																OFFSET -2.8969 0 0
																CHANNELS 3 Zrotation Xrotation Yrotation
																End Site
																{
																	OFFSET 0 0 0
																}
															}
														}
													}
													JOINT Model44
													{
														OFFSET -9.5443 0.745064 -0.588943
														CHANNELS 3 Zrotation Xrotation Yrotation
														JOINT Model45
														{
															OFFSET -5.33978 0 0
															CHANNELS 3 Zrotation Xrotation Yrotation
															JOINT Model46
															{
																OFFSET -3.03619 -1.52588e-005 0
																CHANNELS 3 Zrotation Xrotation Yrotation
																End Site
																{
																	OFFSET 0 0 0
																}
															}
														}
													}
													JOINT Model47
													{
														OFFSET -9.47759 -1.51286 -0.485123
														CHANNELS 3 Zrotation Xrotation Yrotation
														JOINT Model48
														{
															OFFSET -4.96136 -1.52588e-005 0
															CHANNELS 3 Zrotation Xrotation Yrotation
															JOINT Model49
															{
																OFFSET -2.51966 0 0
																CHANNELS 3 Zrotation Xrotation Yrotation
																End Site
																{
																	OFFSET 0 0 0
																}
															}
														}
													}
													JOINT Model50
													{
														OFFSET -9.34246 -3.34118 0.239273
														CHANNELS 3 Zrotation Xrotation Yrotation
														JOINT Model51
														{
															OFFSET -3.2826 -2.28882e-005 0
															CHANNELS 3 Zrotation Xrotation Yrotation
															JOINT Model52
															{
																OFFSET -2.1292 0 0
																CHANNELS 3 Zrotation Xrotation Yrotation
																End Site
																{
																	OFFSET 0 0 0
																}
															}
														}
													}
												}
											}
										}
									}
								}
							}
						}
					}
				}
			}
		}
	}
	JOINT Model53
	{
		OFFSET 4.38026 -2.14632 -1.11516
		CHANNELS 3 Zrotation Xrotation Yrotation
		JOINT Model54
		{
			OFFSET 0 0 4.95
			CHANNELS 3 Zrotation Xrotation Yrotation
			JOINT Model55
			{
				OFFSET 18.5642 0 0
				CHANNELS 3 Zrotation Xrotation Yrotation
				JOINT Model56
				{
					OFFSET 21.2884 0 1.52588e-005
					CHANNELS 3 Zrotation Xrotation Yrotation
					JOINT Model57
					{
						OFFSET 30.261 0 0
						CHANNELS 3 Zrotation Xrotation Yrotation
						JOINT Model58
						{
							OFFSET 11.7259 0 0
							CHANNELS 3 Zrotation Xrotation Yrotation
							JOINT Model59
							{
								OFFSET 10.682 0 0
								CHANNELS 3 Zrotation Xrotation Yrotation
								End Site
								{
									OFFSET 0 0 0
								}
							}
						}
					}
				}
			}
		}
	}
	JOINT Model60
	{
		OFFSET -4.38026 -2.14632 -1.11516
		CHANNELS 3 Zrotation Xrotation Yrotation
		JOINT Model61
		{
			OFFSET 0 0 -4.95
			CHANNELS 3 Zrotation Xrotation Yrotation
			JOINT Model62
			{
				OFFSET -18.5642 0 0
				CHANNELS 3 Zrotation Xrotation Yrotation
				JOINT Model63
				{
					OFFSET -21.2884 0 -1.52588e-005
					CHANNELS 3 Zrotation Xrotation Yrotation
					JOINT Model64
					{
						OFFSET -30.261 0 0
						CHANNELS 3 Zrotation Xrotation Yrotation
						JOINT Model65
						{
							OFFSET -11.7259 0 0
							CHANNELS 3 Zrotation Xrotation Yrotation
							JOINT Model66
							{
								OFFSET -10.682 0 0
								CHANNELS 3 Zrotation Xrotation Yrotation
								End Site
								{
									OFFSET 0 0 0
								}
							}
						}
					}
				}
			}
		}
	}
}
MOTION
Frames: 4
Frame Time: 0.033333
99.4646 120.375 -49.447 108.486 17.2455 80.6684 -180 4.29621e-031 -90 5.93541 -0.0716197 -1.07364 11.8685 -0.254282 -2.13413 11.8685 -0.253854 -2.13422 23.337 -10.8981 12.1752 -12.6617 -11.1819 1.72334 120.092 75.5343 58.4939 21.9592 8.15267 -2.35984 -167.277 84.4999 48.8109 112.806 -13.6126 27.1135 5.31845e-006 8.31059 2.933e-005 -7.30408 8.17157 -18.6374 9.95954e-007 12.7164 1.2388e-006 -6.64515 0.258035 -4.45073 -72.0648 39.0385 39.3397 33.3638 2.10362 14.835 0.588947 0.308273 6.35287 -99.6409 81.413 100.35 -0.0181409 2.78313e-005 -0.117315 -0.124139 0.00241119 -0.799296 -79.8382 79.5773 80.5374 -0.000225759 -0.000220869 2.21659e-005 -0.000956203 0.000122967 -2.73593e-005 -66.7416 80.4058 67.2171 -0.000437115 1.59983e-005 -2.73514e-005 -0.000136581 -0.000109219 -5.4683e-005 -6.42159 81.2158 8.01779 -0.000218554 1.69509e-005 0.0002121 0.000901601 -0.000184744 -0.000218621 -59.9282 75.5373 58.5147 16.4485 -2.73195 -2.85339 -167.277 84.4999 48.8109 115.875 -16.0393 36.0015 2.44576e-006 7.48992 3.12219e-005 -26.2927 21.4924 0.174855 -1.3158e-005 31.7989 7.02797e-006 -0.365527 0.0665914 -20.8935 -72.0648 39.0385 39.3397 33.3638 2.10361 14.835 0.588946 0.308273 6.35287 -99.6409 81.413 100.35 -0.0181409 3.00904e-005 -0.117315 -0.124139 0.00241115 -0.799296 -79.8382 79.5773 80.5374 -0.000260649 -0.000218554 2.35809e-005 -0.00095623 0.000123013 -2.73064e-005 -66.7416 80.4058 67.2171 -0.000437134 1.48936e-005 -2.73104e-005 -0.000136607 -0.000109266 -5.46273e-005 -6.42159 81.2158 8.01779 -0.000218568 1.95905e-005 0.000212305 0.00090158 -0.000191229 -0.000218554 0.000811311 0.56661 89.91 -84.6192 5.59231 -51.0765 -3.35694e-006 -9.00688 -2.81535e-007 63.5409 11.4069 -0.00773615 4.23593e-007 17.0014 4.7417e-007 -10.353 -6.28007 11.832 -35.4947 5.44615e-007 1.51116e-007 -180 -0.566579 -90.09 -95.3066 9.49256 -29.7526 7.13634e-008 0.129071 -2.74955e-010 80.2275 0.794047 -0.00762934 4.02068e-007 1.06987 9.59512e-008 -24.1267 6.946 -7.26913 -35.4947 -1.04952e-007 -7.94761e-008 
99.4362 120.379 -49.435 108.465 17.2888 80.7001 -180 4.29621e-031 -90 5.83805 -0.0900307 -1.13836 11.6732 -0.295788 -2.26167 11.6732 -0.29536 -2.26176 24.7916 -10.0975 13.3334 -12.977 -10.4731 1.30283 120.092 75.5343 58.4939 21.3837 8.6271 -2.17233 -167.277 84.4999 48.8109 113.742 -13.4637 26.5577 5.46522e-006 8.02667 2.93092e-005 -7.47132 8.72215 -18.6276 9.76799e-007 13.5776 1.24316e-006 -6.68495 0.359319 -6.15554 -72.0648 39.0385 39.3397 33.3638 2.10362 14.835 0.588947 0.308273 6.35287 -99.6409 81.413 100.35 -0.0181409 2.78313e-005 -0.117315 -0.124139 0.00241119 -0.799296 -79.8382 79.5773 80.5374 -0.000225759 -0.000220869 2.21659e-005 -0.000956203 0.000122967 -2.73593e-005 -66.7416 80.4058 67.2171 -0.000437115 1.59983e-005 -2.73514e-005 -0.000136581 -0.000109219 -5.4683e-005 -6.42159 81.2158 8.01779 -0.000218554 1.69509e-005 0.0002121 0.000901601 -0.000184744 -0.000218621 -59.9282 75.5373 58.5147 15.6797 -2.19167 -2.65655 -167.277 84.4999 48.8109 114.769 -17.2484 35.4515 3.42989e-006 5.69254 3.11089e-005 -18.9114 26.4049 -0.298306 -1.43407e-005 39.2831 7.7169e-006 -3.0915 0.506287 -18.9241 -72.0648 39.0385 39.3397 33.3638 2.10361 14.835 0.588946 0.308273 6.35287 -99.6409 81.413 100.35 -0.0181409 3.00904e-005 -0.117315 -0.124139 0.00241115 -0.799296 -79.8382 79.5773 80.5374 -0.000260649 -0.000218554 2.35809e-005 -0.00095623 0.000123013 -2.73064e-005 -66.7416 80.4058 67.2171 -0.000437134 1.48936e-005 -2.73104e-005 -0.000136607 -0.000109266 -5.46273e-005 -6.42159 81.2158 8.01779 -0.000218568 1.95905e-005 0.000212305 0.00090158 -0.000191229 -0.000218554 0.000811311 0.56661 89.91 -84.6694 5.57802 -51.0636 -3.35721e-006 -9.061 -2.81577e-007 63.4869 11.4756 -0.00773803 4.22701e-007 17.1044 4.74432e-007 -10.3139 -6.15243 11.6477 -35.4947 5.44615e-007 1.51116e-007 -180 -0.566579 -90.09 -95.506 9.56409 -29.8691 7.13632e-008 0.0905406 -2.74955e-010 80.5413 0.712706 -0.00762919 4.02273e-007 0.947738 9.59476e-008 -25.0686 6.78454 -6.99959 -35.4947 -1.04952e-007 -7.94761e-008 
99.3691 120.41 -49.409 108.43 17.3627 80.8571 -180 4.29621e-031 -90 5.79848 -0.109289 -1.1387 11.5937 -0.333473 -2.26054 11.5937 -0.333045 -2.26063 25.4553 -9.24858 13.7127 -12.651 -9.78197 1.79491 120.092 75.5343 58.4939 20.6334 8.89806 -1.96497 -167.277 84.4999 48.8109 112.975 -10.7763 25.3498 3.43615e-006 11.9108 2.96606e-005 -5.71179 7.27504 -18.7809 1.02609e-006 11.3499 1.23252e-006 -7.08781 0.599528 -9.58978 -72.0648 39.0385 39.3397 33.3638 2.10362 14.835 0.588947 0.308273 6.35287 -99.6409 81.413 100.35 -0.0181409 2.78313e-005 -0.117315 -0.124139 0.00241119 -0.799296 -79.8382 79.5773 80.5374 -0.000225759 -0.000220869 2.21659e-005 -0.000956203 0.000122967 -2.73593e-005 -66.7416 80.4058 67.2171 -0.000437115 1.59983e-005 -2.73514e-005 -0.000136581 -0.000109219 -5.4683e-005 -6.42159 81.2158 8.01779 -0.000218554 1.69509e-005 0.0002121 0.000901601 -0.000184744 -0.000218621 -59.9282 75.5373 58.5147 15.5287 -1.82046 -2.57198 -167.277 84.4999 48.8109 115.137 -17.1872 34.7644 3.6279e-006 5.32942 3.10899e-005 -17.8678 29.1398 -0.449756 -1.51034e-005 43.4011 8.22104e-006 -4.82131 0.646384 -15.1853 -72.0648 39.0385 39.3397 33.3638 2.10361 14.835 0.588946 0.308273 6.35287 -99.6409 81.413 100.35 -0.0181409 3.00904e-005 -0.117315 -0.124139 0.00241115 -0.799296 -79.8382 79.5773 80.5374 -0.000260649 -0.000218554 2.35809e-005 -0.00095623 0.000123013 -2.73064e-005 -66.7416 80.4058 67.2171 -0.000437134 1.48936e-005 -2.73104e-005 -0.000136607 -0.000109266 -5.46273e-005 -6.42159 81.2158 8.01779 -0.000218568 1.95905e-005 0.000212305 0.00090158 -0.000191229 -0.000218554 0.000811311 0.56661 89.91 -84.7487 5.64203 -50.9432 -3.35679e-006 -8.97688 -2.81512e-007 63.3585 11.4597 -0.0077376 4.22906e-007 17.0808 4.74371e-007 -10.2764 -6.10913 11.5917 -35.4947 5.44615e-007 1.51116e-007 -180 -0.566579 -90.09 -95.7431 9.62988 -29.972 7.13629e-008 0.033018 -2.74954e-010 81.0693 0.635042 -0.00762907 4.02468e-007 0.831049 9.59446e-008 -26.7888 6.3811 -6.40318 -35.4947 -1.04952e-007 -7.94761e-008 
99.2733 120.479 -49.393 108.322 17.344 81.1071 -180 4.29621e-031 -90 5.81906 -0.109156 -1.07335 11.6351 -0.326985 -2.13011 11.6351 -0.326557 -2.1302 24.9705 -8.49004 12.9341 -11.9413 -9.16228 3.07895 120.092 75.5343 58.4939 20.272 8.72205 -1.90219 -167.277 84.4999 48.8109 111.592 -7.28941 24.7857 4.27689e-007 17.4631 3.04243e-005 -3.10561 5.84207 -18.7384 1.074e-006 9.15016 1.22399e-006 -7.12006 0.785726 -12.6577 -72.0648 39.0385 39.3397 33.3638 2.10362 14.835 0.588947 0.308273 6.35287 -99.6409 81.413 100.35 -0.0181409 2.78313e-005 -0.117315 -0.124139 0.00241119 -0.799296 -79.8382 79.5773 80.5374 -0.000225759 -0.000220869 2.21659e-005 -0.000956203 0.000122967 -2.73593e-005 -66.7416 80.4058 67.2171 -0.000437115 1.59983e-005 -2.73514e-005 -0.000136581 -0.000109219 -5.4683e-005 -6.42159 81.2158 8.01779 -0.000218554 1.69509e-005 0.0002121 0.000901601 -0.000184744 -0.000218621 -59.9282 75.5373 58.5147 15.5867 -1.79562 -2.57581 -167.277 84.4999 48.8109 117.584 -15.4802 34.0828 2.78703e-006 6.86814 3.11793e-005 -26.0454 28.0573 0.0830335 -1.47672e-005 41.6502 7.99379e-006 -3.67061 0.346359 -10.5027 -72.0648 39.0385 39.3397 33.3638 2.10361 14.835 0.588946 0.308273 6.35287 -99.6409 81.413 100.35 -0.0181409 3.00904e-005 -0.117315 -0.124139 0.00241115 -0.799296 -79.8382 79.5773 80.5374 -0.000260649 -0.000218554 2.35809e-005 -0.00095623 0.000123013 -2.73064e-005 -66.7416 80.4058 67.2171 -0.000437134 1.48936e-005 -2.73104e-005 -0.000136607 -0.000109266 -5.46273e-005 -6.42159 81.2158 8.01779 -0.000218568 1.95905e-005 0.000212305 0.00090158 -0.000191229 -0.000218554 0.000811311 0.56661 89.91 -84.831 5.72641 -50.939 -3.35646e-006 -8.91057 -2.81461e-007 63.1923 11.4128 -0.00773631 4.23514e-007 17.0106 4.74193e-007 -10.2376 -6.17496 11.7029 -35.4947 5.44615e-007 1.51116e-007 -180 -0.566579 -90.09 -96.1226 9.71611 -29.7001 7.13634e-008 0.137001 -2.74955e-010 81.767 0.409784 -0.0076288 4.03035e-007 0.492925 9.5938e-008 -29.0362 5.99392 -5.82333 -35.4947 -1.04952e-007 -7.94761e-008 
